# xmcd
#
# Track frame offsets:
#	150
#	11627
#	21766
#	32193
#	40676
#	51700
#	60998
#	70216
#	79853
#	91630
#	102408
#	111311
#
# Disc length: 1579 seconds
#
# Revision: 1
# Processed by: cddbd v1.5.2PL0 Copyright (c) Steve Scherf et al.
# Submitted via: audiograbber 1.83.01
#
DISCID=9806290c
DTITLE=Fats Domino - Fats Domino Swings
DYEAR=1967
DGENRE=Bles/Rock&Roll
TTITLE0=The Fat Man
TTITLE1=Blue Monday
TTITLE2=Blueberry Hill
TTITLE3=I'm In Love Again
TTITLE4=Going To The River
TTITLE5=My Blue Heaven
TTITLE6=Bo Weevil
TTITLE7=Goin' Home
TTITLE8=Please Don't Leave Me
TTITLE9=Ain't That A Shame
TTITLE10=I'm Walkin'
TTITLE11=Whole Lotta Loving
EXTD=
EXTT0=
EXTT1=
EXTT2=
EXTT3=
EXTT4=
EXTT5=
EXTT6=
EXTT7=
EXTT8=
EXTT9=
EXTT10=
EXTT11=
PLAYORDER=
